#tb 0: 1/30
0,          0,          0,        1,   192000, 0x82a79641
0,          1,          1,        1,   192000, 0x43079971
0,          2,          2,        1,   192000, 0x6311f1e5
0,          3,          3,        1,   192000, 0x9e1ef4dc
0,          4,          4,        1,   192000, 0x6f81049b
0,          5,          5,        1,   192000, 0xe696fb12
0,          6,          6,        1,   192000, 0x1ef4d160
0,          7,          7,        1,   192000, 0x2f1bf0d4
0,          8,          8,        1,   192000, 0xcfed92da
0,          9,          9,        1,   192000, 0xbd409978
0,         10,         10,        1,   192000, 0x50f76f07
0,         11,         11,        1,   192000, 0xc8d52062
0,         12,         12,        1,   192000, 0x75061d0e
0,         13,         13,        1,   192000, 0x01b2a711
0,         14,         14,        1,   192000, 0x541ca739
0,         15,         15,        1,   192000, 0xe931ad85
0,         16,         16,        1,   192000, 0xb7e4d4a5
0,         17,         17,        1,   192000, 0xfc20d475
0,         18,         18,        1,   192000, 0x7a5eefe5
0,         19,         19,        1,   192000, 0x95a3ef97
0,         20,         20,        1,   192000, 0x021d7f69
0,         21,         21,        1,   192000, 0x108e7ed9
0,         22,         22,        1,   192000, 0x021d7f69
0,         23,         23,        1,   192000, 0x681817d8
0,         24,         24,        1,   192000, 0x653e19d2
0,         25,         25,        1,   192000, 0x56d9b14a
0,         26,         26,        1,   192000, 0x82240846
0,         27,         27,        1,   192000, 0xa2e90840
0,         28,         28,        1,   192000, 0x8e031416
0,         29,         29,        1,   192000, 0xe23813a6
0,         30,         30,        1,   192000, 0xb2451aa1
0,         31,         31,        1,   192000, 0x92eec7d2
0,         32,         32,        1,   192000, 0x6400c80e
0,         33,         33,        1,   192000, 0x24f01fce
0,         34,         34,        1,   192000, 0x7c1b201c
0,         35,         35,        1,   192000, 0xe2c878a1
0,         36,         36,        1,   192000, 0xf6006739
0,         37,         37,        1,   192000, 0x726b6677
0,         38,         38,        1,   192000, 0xca61a01d
0,         39,         39,        1,   192000, 0x87e49f69
0,         40,         40,        1,   192000, 0x57120bd4
0,         41,         41,        1,   192000, 0x50171c4b
0,         42,         42,        1,   192000, 0x8ace1c49
0,         43,         43,        1,   192000, 0x83082a8c
0,         44,         44,        1,   192000, 0x6e092b58
0,         45,         45,        1,   192000, 0x207a9af4
0,         46,         46,        1,   192000, 0xedf193f0
0,         47,         47,        1,   192000, 0x531793f0
0,         48,         48,        1,   192000, 0x24e2a406
0,         49,         49,        1,   192000, 0x6c34a1e5
0,         50,         50,        1,   192000, 0x8e7acdae
0,         51,         51,        1,   192000, 0x1f941805
0,         52,         52,        1,   192000, 0x0c391218
0,         53,         53,        1,   192000, 0xf25aa1fd
0,         54,         54,        1,   192000, 0xcb2aa40e
0,         55,         55,        1,   192000, 0x69701e49
0,         56,         56,        1,   192000, 0x0dd719d3
0,         57,         57,        1,   192000, 0x5ef71955
0,         58,         58,        1,   192000, 0xac2063ca
0,         59,         59,        1,   192000, 0xce7d601c
0,         60,         60,        1,   192000, 0x43003946
0,         61,         61,        1,   192000, 0xa72a38ee
0,         62,         62,        1,   192000, 0x98023933
0,         63,         63,        1,   192000, 0xa72a38ee
0,         64,         64,        1,   192000, 0x98023933
0,         65,         65,        1,   192000, 0xa72a38ee
0,         66,         66,        1,   192000, 0x98023933
0,         67,         67,        1,   192000, 0xa72a38ee
0,         68,         68,        1,   192000, 0xdd7f371d
0,         69,         69,        1,   192000, 0xeed134c6
0,        103,        103,        1,   192000, 0x362931f5
0,        104,        104,        1,   192000, 0xfb41331d
0,        105,        105,        1,   192000, 0x087433f8
0,        106,        106,        1,   192000, 0xf36b34a6
0,        107,        107,        1,   192000, 0x652a33cd
0,        108,        108,        1,   192000, 0x652a33cd
0,        109,        109,        1,   192000, 0xe50c336a
0,        110,        110,        1,   192000, 0x652a33cd
0,        111,        111,        1,   192000, 0xeed134c6
0,        112,        112,        1,   192000, 0x652a33cd
0,        113,        113,        1,   192000, 0x5d7633e5
0,        114,        114,        1,   192000, 0x845233b5
0,        115,        115,        1,   192000, 0x9d1c349b
0,        116,        116,        1,   192000, 0x25843317
0,        117,        117,        1,   192000, 0xc84b375c
0,        118,        118,        1,   192000, 0xaf2b3410
0,        119,        119,        1,   192000, 0xaf2b3410
0,        120,        120,        1,   192000, 0x26d23594
0,        121,        121,        1,   192000, 0xaf2b3410
0,        122,        122,        1,   192000, 0x26d23594
0,        123,        123,        1,   192000, 0xaf2b3410
0,        124,        124,        1,   192000, 0x72c4dfb9
0,        125,        125,        1,   192000, 0x3c72e390
0,        126,        126,        1,   192000, 0xb4466634
0,        127,        127,        1,   192000, 0x84f064f5
0,        128,        128,        1,   192000, 0xad43f3f5
0,        129,        129,        1,   192000, 0xa8644d57
0,        130,        130,        1,   192000, 0xfac35238
0,        131,        131,        1,   192000, 0xe9374d1e
0,        132,        132,        1,   192000, 0x0bd14cfa
0,        133,        133,        1,   192000, 0x7e51a437
0,        134,        134,        1,   192000, 0x92678dfa
0,        135,        135,        1,   192000, 0x43338d41
0,        136,        136,        1,   192000, 0x00000000
0,        137,        137,        1,   192000, 0x00000000
0,        138,        138,        1,   192000, 0x00000000
0,        139,        139,        1,   192000, 0x00000000
0,        140,        140,        1,   192000, 0x00000000
0,        141,        141,        1,   192000, 0x00000000
0,        142,        142,        1,   192000, 0x00000000
0,        143,        143,        1,   192000, 0x00000000
0,        144,        144,        1,   192000, 0x00000000
0,        145,        145,        1,   192000, 0x00000000
0,        146,        146,        1,   192000, 0x00000000
0,        147,        147,        1,   192000, 0x00000000
0,        148,        148,        1,   192000, 0x00000000
0,        149,        149,        1,   192000, 0x00000000
0,        150,        150,        1,   192000, 0x00000000
0,        151,        151,        1,   192000, 0x00000000
0,        152,        152,        1,   192000, 0x00000000
0,        153,        153,        1,   192000, 0x00000000
0,        154,        154,        1,   192000, 0x00000000
0,        155,        155,        1,   192000, 0x82a79641
